<svg width="124" height="28" viewBox="0 0 124 28" fill="none" xmlns="http://www.w3.org/2000/svg">
<mask id="mask0_503_1916" style="mask-type:luminance" maskUnits="userSpaceOnUse" x="7" y="0" width="14" height="13">
<path d="M9.28424 11.1088L14.3589 2.30491L19.0062 10.3684C18.7202 10.3636 18.4336 10.3619 18.1483 10.3619C18.0011 10.3619 17.8526 10.3626 17.7023 10.3636L15.1393 5.91629L14.3589 4.56235L13.5778 5.91629L10.718 10.8781C10.2341 10.948 9.75526 11.0252 9.28424 11.1088ZM14.3589 6.36761L17.1856 11.273C17.5048 11.2669 17.8254 11.2645 18.1483 11.2645C18.9755 11.2645 19.7921 11.2833 20.5954 11.3194L14.3589 0.499438L7.50586 12.3887C8.69623 12.1168 9.95858 11.8892 11.2786 11.7117L14.3589 6.36761Z" fill="white"/>
</mask>
<g mask="url(#mask0_503_1916)">
<path d="M9.28424 11.1088L14.3589 2.30491L19.0062 10.3684C18.7202 10.3636 18.4336 10.3619 18.1483 10.3619C18.0011 10.3619 17.8526 10.3626 17.7023 10.3636L15.1393 5.91629L14.3589 4.56235L13.5778 5.91629L10.718 10.8781C10.2341 10.948 9.75526 11.0252 9.28424 11.1088ZM14.3589 6.36761L17.1856 11.273C17.5048 11.2669 17.8254 11.2645 18.1483 11.2645C18.9755 11.2645 19.7921 11.2833 20.5954 11.3194L14.3589 0.499438L7.50586 12.3887C8.69623 12.1168 9.95858 11.8892 11.2786 11.7117L14.3589 6.36761Z" fill="#F27329"/>
</g>
<mask id="mask1_503_1916" style="mask-type:luminance" maskUnits="userSpaceOnUse" x="0" y="11" width="32" height="17">
<path d="M18.4127 13.3915L20.1672 16.4353H8.57029C11.0263 15.0633 14.4408 13.994 18.4127 13.3915ZM10.1614 27.499C6.62686 25.9432 4.46662 23.8611 4.46662 21.5736C4.46662 20.8121 4.70582 20.0737 5.15553 19.3695H25.2412L21.582 13.0215C22.9741 12.9056 24.4159 12.8446 25.8922 12.8446C27.8809 12.8446 29.8067 12.955 31.6334 13.1619C31.5281 13.1277 31.4196 13.0953 31.3124 13.0622C31.4196 13.0953 31.5283 13.1277 31.6334 13.1619C31.756 13.1757 31.878 13.1898 32 13.2044C31.6779 13.1227 31.3502 13.0448 31.0167 12.9703C31.0164 12.9703 31.0162 12.97 31.016 12.97C28.0325 12.3037 24.5996 11.9221 20.9461 11.9182C20.9244 11.9178 20.9024 11.9178 20.8809 11.9178C20.0493 11.9178 19.2291 11.9374 18.4232 11.9755C18.1546 11.9881 17.8873 12.0029 17.6216 12.0197C15.076 12.1796 12.6831 12.5244 10.53 13.0188C10.3441 13.0615 10.1599 13.1053 9.97747 13.1502C8.70098 13.4647 7.51518 13.8328 6.43984 14.2469C2.47121 15.7725 0 17.9219 0 20.3026C0 23.3592 4.07388 26.0342 10.1614 27.499Z" fill="white"/>
</mask>
<g mask="url(#mask1_503_1916)">
<path d="M18.4127 13.3915L20.1672 16.4353H8.57029C11.0263 15.0633 14.4408 13.994 18.4127 13.3915ZM10.1614 27.499C6.62686 25.9432 4.46662 23.8611 4.46662 21.5736C4.46662 20.8121 4.70582 20.0737 5.15553 19.3695H25.2412L21.582 13.0215C22.9741 12.9056 24.4159 12.8446 25.8922 12.8446C27.8809 12.8446 29.8067 12.955 31.6334 13.1619C31.5281 13.1277 31.4196 13.0953 31.3124 13.0622C31.4196 13.0953 31.5283 13.1277 31.6334 13.1619C31.756 13.1757 31.878 13.1898 32 13.2044C31.6779 13.1227 31.3502 13.0448 31.0167 12.9703C31.0164 12.9703 31.0162 12.97 31.016 12.97C28.0325 12.3037 24.5996 11.9221 20.9461 11.9182C20.9244 11.9178 20.9024 11.9178 20.8809 11.9178C20.0493 11.9178 19.2291 11.9374 18.4232 11.9755C18.1546 11.9881 17.8873 12.0029 17.6216 12.0197C15.076 12.1796 12.6831 12.5244 10.53 13.0188C10.3441 13.0615 10.1599 13.1053 9.97747 13.1502C8.70098 13.4647 7.51518 13.8328 6.43984 14.2469C2.47121 15.7725 0 17.9219 0 20.3026C0 23.3592 4.07388 26.0342 10.1614 27.499Z" fill="#F27329"/>
</g>
<path d="M35.598 20.5V5.95455H37.7926V18.6108H44.3835V20.5H35.598ZM53.6271 15.9759V9.59091H55.7578V20.5H53.6697V18.6108H53.5561C53.3052 19.1932 52.9027 19.6785 52.3487 20.0668C51.7995 20.4503 51.1153 20.642 50.2962 20.642C49.5954 20.642 48.9751 20.4882 48.4354 20.1804C47.9003 19.8679 47.4789 19.4062 47.1712 18.7955C46.8681 18.1847 46.7166 17.4295 46.7166 16.5298V9.59091H48.8402V16.2741C48.8402 17.0175 49.0462 17.6094 49.4581 18.0497C49.87 18.4901 50.4051 18.7102 51.0632 18.7102C51.4609 18.7102 51.8563 18.6108 52.2493 18.4119C52.647 18.2131 52.9761 17.9124 53.2365 17.5099C53.5017 17.1075 53.6319 16.5961 53.6271 15.9759ZM58.6112 20.5V9.59091H60.6495V11.3665H60.7844C61.0117 10.7652 61.3834 10.2964 61.8995 9.96023C62.4156 9.61932 63.0335 9.44886 63.7532 9.44886C64.4824 9.44886 65.0932 9.61932 65.5856 9.96023C66.0827 10.3011 66.4497 10.7699 66.6864 11.3665H66.8001C67.0605 10.7841 67.4748 10.3201 68.043 9.97443C68.6112 9.62405 69.2882 9.44886 70.0742 9.44886C71.0638 9.44886 71.8711 9.759 72.4961 10.3793C73.1258 10.9995 73.4407 11.9347 73.4407 13.1847V20.5H71.3171V13.3835C71.3171 12.6449 71.1159 12.1098 70.7134 11.7784C70.311 11.447 69.8304 11.2812 69.2717 11.2812C68.5804 11.2812 68.043 11.4943 67.6594 11.9205C67.2759 12.3419 67.0842 12.884 67.0842 13.5469V20.5H64.9677V13.2486C64.9677 12.6567 64.783 12.1809 64.4137 11.821C64.0444 11.4612 63.5638 11.2812 62.9719 11.2812C62.5695 11.2812 62.1978 11.3878 61.8569 11.6009C61.5207 11.8092 61.2485 12.1004 61.0401 12.4744C60.8365 12.8485 60.7347 13.2817 60.7347 13.7741V20.5H58.6112ZM80.9886 20.7202C79.9138 20.7202 78.9882 20.4905 78.2116 20.0312C77.4399 19.5672 76.8433 18.9162 76.4219 18.0781C76.0052 17.2353 75.7969 16.2481 75.7969 15.1165C75.7969 13.9991 76.0052 13.0142 76.4219 12.1619C76.8433 11.3097 77.4304 10.6444 78.1832 10.1662C78.9408 9.68797 79.8262 9.44886 80.8395 9.44886C81.455 9.44886 82.0516 9.55066 82.6293 9.75426C83.2069 9.95786 83.7254 10.2775 84.1847 10.7131C84.6439 11.1487 85.0062 11.7145 85.2713 12.4105C85.5365 13.1018 85.669 13.9422 85.669 14.9318V15.6847H76.9972V14.0938H83.5881C83.5881 13.535 83.4744 13.0402 83.2472 12.6094C83.0199 12.1738 82.7003 11.8305 82.2884 11.5795C81.8812 11.3286 81.4029 11.2031 80.8537 11.2031C80.2571 11.2031 79.7363 11.3499 79.2912 11.6435C78.8509 11.9323 78.5099 12.3111 78.2685 12.7798C78.0317 13.2438 77.9134 13.7481 77.9134 14.2926V15.5355C77.9134 16.2647 78.0412 16.8849 78.2969 17.3963C78.5573 17.9077 78.9195 18.2983 79.3835 18.5682C79.8475 18.8333 80.3897 18.9659 81.0099 18.9659C81.4124 18.9659 81.7794 18.9091 82.1108 18.7955C82.4422 18.6771 82.7287 18.5019 82.9702 18.2699C83.2116 18.0379 83.3963 17.7514 83.5241 17.4105L85.5341 17.7727C85.3731 18.3646 85.0843 18.883 84.6676 19.3281C84.2557 19.7685 83.7372 20.1117 83.1122 20.358C82.492 20.5994 81.7841 20.7202 80.9886 20.7202ZM96.1999 12.2543L94.2752 12.5952C94.1947 12.349 94.0669 12.1146 93.8917 11.892C93.7212 11.6695 93.4892 11.4872 93.1957 11.3452C92.9021 11.2031 92.5352 11.1321 92.0948 11.1321C91.4935 11.1321 90.9916 11.267 90.5891 11.5369C90.1867 11.8021 89.9854 12.1454 89.9854 12.5668C89.9854 12.9313 90.1204 13.2249 90.3903 13.4474C90.6602 13.67 91.0958 13.8523 91.6971 13.9943L93.43 14.392C94.4338 14.6241 95.1819 14.9815 95.6744 15.4645C96.1668 15.9474 96.413 16.5748 96.413 17.3466C96.413 18 96.2236 18.5824 95.8448 19.0938C95.4708 19.6004 94.9476 19.9981 94.2752 20.2869C93.6076 20.5758 92.8335 20.7202 91.9528 20.7202C90.7312 20.7202 89.7345 20.4598 88.9627 19.9389C88.1909 19.4134 87.7174 18.6676 87.5423 17.7017L89.5948 17.3892C89.7227 17.9242 89.9854 18.3291 90.3832 18.6037C90.7809 18.8736 91.2994 19.0085 91.9386 19.0085C92.6346 19.0085 93.1909 18.8641 93.6076 18.5753C94.0243 18.2817 94.2326 17.9242 94.2326 17.5028C94.2326 17.1619 94.1048 16.8755 93.8491 16.6435C93.5981 16.4115 93.2122 16.2363 92.6914 16.1179L90.8448 15.7131C89.8268 15.4811 89.074 15.1117 88.5863 14.6051C88.1033 14.0985 87.8619 13.4569 87.8619 12.6804C87.8619 12.0365 88.0418 11.473 88.4016 10.9901C88.7615 10.5071 89.2586 10.1307 89.8931 9.8608C90.5276 9.58617 91.2544 9.44886 92.0735 9.44886C93.2525 9.44886 94.1805 9.70455 94.8576 10.2159C95.5347 10.7225 95.9821 11.402 96.1999 12.2543ZM103.84 9.59091V11.2955H97.8814V9.59091H103.84ZM99.4794 6.97727H101.603V17.2969C101.603 17.7088 101.665 18.0189 101.788 18.2273C101.911 18.4309 102.069 18.5705 102.263 18.6463C102.462 18.7173 102.678 18.7528 102.91 18.7528C103.08 18.7528 103.229 18.741 103.357 18.7173C103.485 18.6937 103.585 18.6747 103.656 18.6605L104.039 20.4148C103.916 20.4621 103.741 20.5095 103.513 20.5568C103.286 20.6089 103.002 20.6373 102.661 20.642C102.103 20.6515 101.582 20.5521 101.099 20.3438C100.616 20.1354 100.225 19.8134 99.9268 19.3778C99.6286 18.9422 99.4794 18.3954 99.4794 17.7372V6.97727ZM106.189 20.5V9.59091H108.242V11.3239H108.355C108.554 10.7367 108.905 10.2751 109.407 9.93892C109.913 9.59801 110.486 9.42756 111.125 9.42756C111.258 9.42756 111.414 9.43229 111.594 9.44176C111.779 9.45123 111.923 9.46307 112.027 9.47727V11.5085C111.942 11.4848 111.791 11.4588 111.573 11.4304C111.355 11.3973 111.137 11.3807 110.919 11.3807C110.417 11.3807 109.97 11.4872 109.577 11.7003C109.189 11.9086 108.881 12.1998 108.654 12.5739C108.426 12.9432 108.313 13.3646 108.313 13.8381V20.5H106.189ZM116.942 20.7415C116.251 20.7415 115.626 20.6136 115.067 20.358C114.508 20.0975 114.066 19.7211 113.739 19.2287C113.417 18.7363 113.256 18.1326 113.256 17.4176C113.256 16.8021 113.374 16.2955 113.611 15.8977C113.848 15.5 114.167 15.1851 114.57 14.9531C114.972 14.7211 115.422 14.5459 115.919 14.4276C116.417 14.3092 116.923 14.2192 117.439 14.1577C118.093 14.0819 118.623 14.0204 119.03 13.973C119.437 13.9209 119.733 13.8381 119.918 13.7244C120.103 13.6108 120.195 13.4261 120.195 13.1705V13.1207C120.195 12.5005 120.02 12.0199 119.669 11.679C119.324 11.3381 118.808 11.1676 118.121 11.1676C117.406 11.1676 116.843 11.3262 116.431 11.6435C116.024 11.956 115.742 12.304 115.586 12.6875L113.59 12.233C113.827 11.5701 114.172 11.035 114.627 10.6278C115.086 10.2159 115.614 9.91761 116.211 9.73295C116.807 9.54356 117.435 9.44886 118.093 9.44886C118.528 9.44886 118.99 9.50095 119.478 9.60511C119.97 9.70455 120.429 9.8892 120.855 10.1591C121.286 10.429 121.639 10.8149 121.914 11.3168C122.188 11.8139 122.326 12.4602 122.326 13.2557V20.5H120.252V19.0085H120.167C120.029 19.2831 119.823 19.553 119.549 19.8182C119.274 20.0833 118.921 20.3035 118.49 20.4787C118.06 20.6539 117.543 20.7415 116.942 20.7415ZM117.404 19.0369C117.991 19.0369 118.493 18.9209 118.909 18.6889C119.331 18.4569 119.65 18.1539 119.868 17.7798C120.091 17.401 120.202 16.9962 120.202 16.5653V15.1591C120.126 15.2348 119.98 15.3059 119.762 15.3722C119.549 15.4337 119.305 15.4882 119.03 15.5355C118.756 15.5781 118.488 15.6184 118.228 15.6562C117.967 15.6894 117.749 15.7178 117.574 15.7415C117.162 15.7936 116.786 15.8812 116.445 16.0043C116.109 16.1274 115.839 16.3049 115.635 16.5369C115.436 16.7642 115.337 17.0672 115.337 17.446C115.337 17.9716 115.531 18.3693 115.919 18.6392C116.308 18.9044 116.802 19.0369 117.404 19.0369Z" fill="#261717"/>
</svg>
