<svg width="206" height="45" viewBox="0 0 206 45" fill="none" xmlns="http://www.w3.org/2000/svg">
<mask id="mask0_558_1878" style="mask-type:luminance" maskUnits="userSpaceOnUse" x="12" y="0" width="23" height="21">
<path d="M15.424 18.2853L23.8544 3.93779L31.575 17.0788C31.0999 17.0709 30.6238 17.0681 30.1498 17.0681C29.9052 17.0681 29.6585 17.0692 29.4089 17.071L25.151 9.82318L23.8544 7.61668L22.5568 9.82318L17.8058 17.9094C17.002 18.0233 16.2065 18.149 15.424 18.2853ZM23.8544 10.5587L28.5505 18.553C29.0808 18.543 29.6133 18.5391 30.1498 18.5391C31.524 18.5391 32.8806 18.5696 34.2151 18.6286L23.8544 0.995447L12.4696 20.3711C14.4472 19.9281 16.5443 19.5571 18.7372 19.2678L23.8544 10.5587Z" fill="white"/>
</mask>
<g mask="url(#mask0_558_1878)">
<path d="M15.424 18.2853L23.8544 3.93779L31.575 17.0788C31.0999 17.0709 30.6238 17.0681 30.1498 17.0681C29.9052 17.0681 29.6585 17.0692 29.4089 17.071L25.151 9.82318L23.8544 7.61668L22.5568 9.82318L17.8058 17.9094C17.002 18.0233 16.2065 18.149 15.424 18.2853ZM23.8544 10.5587L28.5505 18.553C29.0808 18.543 29.6133 18.5391 30.1498 18.5391C31.524 18.5391 32.8806 18.5696 34.2151 18.6286L23.8544 0.995447L12.4696 20.3711C14.4472 19.9281 16.5443 19.5571 18.7372 19.2678L23.8544 10.5587Z" fill="#F27329"/>
</g>
<mask id="mask1_558_1878" style="mask-type:luminance" maskUnits="userSpaceOnUse" x="0" y="19" width="54" height="26">
<path d="M30.5889 22.0093L33.5035 26.9697H14.2377C18.3178 24.7337 23.9904 22.9911 30.5889 22.0093ZM16.8811 45C11.0091 42.4644 7.42035 39.0713 7.42035 35.3434C7.42035 34.1024 7.81774 32.8991 8.56483 31.7515H41.9329L35.8539 21.4062C38.1667 21.2174 40.5619 21.118 43.0145 21.118C46.3183 21.118 49.5176 21.2979 52.5522 21.6352C52.3774 21.5794 52.1971 21.5265 52.019 21.4726C52.1971 21.5265 52.3777 21.5794 52.5522 21.6352C52.756 21.6575 52.9586 21.6806 53.1613 21.7044C52.6263 21.5713 52.0819 21.4442 51.5277 21.3228C51.5273 21.3228 51.5269 21.3224 51.5266 21.3224C46.57 20.2366 40.8672 19.6147 34.7976 19.6083C34.7615 19.6076 34.725 19.6076 34.6892 19.6076C33.3077 19.6076 31.945 19.6395 30.6062 19.7016C30.16 19.7222 29.7161 19.7464 29.2746 19.7737C25.0456 20.0342 21.0703 20.5962 17.4934 21.4019C17.1846 21.4715 16.8786 21.5429 16.5755 21.616C14.4549 22.1286 12.4849 22.7285 10.6984 23.4033C4.1054 25.8895 0 29.3923 0 33.2721C0 38.2534 6.7679 42.6128 16.8811 45Z" fill="white"/>
</mask>
<g mask="url(#mask1_558_1878)">
<path d="M30.5889 22.0093L33.5035 26.9697H14.2377C18.3178 24.7337 23.9904 22.9911 30.5889 22.0093ZM16.8811 45C11.0091 42.4644 7.42035 39.0713 7.42035 35.3434C7.42035 34.1024 7.81774 32.8991 8.56483 31.7515H41.9329L35.8539 21.4062C38.1667 21.2174 40.5619 21.118 43.0145 21.118C46.3183 21.118 49.5176 21.2979 52.5522 21.6352C52.3774 21.5794 52.1971 21.5265 52.019 21.4726C52.1971 21.5265 52.3777 21.5794 52.5522 21.6352C52.756 21.6575 52.9586 21.6806 53.1613 21.7044C52.6263 21.5713 52.0819 21.4442 51.5277 21.3228C51.5273 21.3228 51.5269 21.3224 51.5266 21.3224C46.57 20.2366 40.8672 19.6147 34.7976 19.6083C34.7615 19.6076 34.725 19.6076 34.6892 19.6076C33.3077 19.6076 31.945 19.6395 30.6062 19.7016C30.16 19.7222 29.7161 19.7464 29.2746 19.7737C25.0456 20.0342 21.0703 20.5962 17.4934 21.4019C17.1846 21.4715 16.8786 21.5429 16.5755 21.616C14.4549 22.1286 12.4849 22.7285 10.6984 23.4033C4.1054 25.8895 0 29.3923 0 33.2721C0 38.2534 6.7679 42.6128 16.8811 45Z" fill="#F27329"/>
</g>
<path d="M59.0406 34.2578V10.9851H62.5519V31.2351H73.0974V34.2578H59.0406ZM87.8872 27.0192V16.8033H91.2963V34.2578H87.9554V31.2351H87.7735C87.372 32.1669 86.7281 32.9434 85.8417 33.5646C84.9629 34.1783 83.8682 34.4851 82.5576 34.4851C81.4364 34.4851 80.444 34.2389 79.5804 33.7464C78.7243 33.2464 78.0501 32.5078 77.5576 31.5305C77.0728 30.5533 76.8304 29.3449 76.8304 27.9055V16.8033H80.2281V27.4964C80.2281 28.6858 80.5576 29.6328 81.2167 30.3374C81.8758 31.0419 82.7319 31.3942 83.7849 31.3942C84.4213 31.3942 85.0538 31.2351 85.6826 30.9169C86.319 30.5987 86.8455 30.1177 87.2622 29.4737C87.6864 28.8298 87.8947 28.0116 87.8872 27.0192ZM95.8616 34.2578V16.8033H99.123V19.6442H99.3389C99.7025 18.6821 100.297 17.9321 101.123 17.3942C101.949 16.8487 102.937 16.576 104.089 16.576C105.256 16.576 106.233 16.8487 107.021 17.3942C107.816 17.9396 108.403 18.6896 108.782 19.6442H108.964C109.381 18.7124 110.043 17.9699 110.953 17.4169C111.862 16.8563 112.945 16.576 114.203 16.576C115.786 16.576 117.078 17.0722 118.078 18.0646C119.085 19.0571 119.589 20.5533 119.589 22.5533V34.2578H116.191V22.8714C116.191 21.6896 115.869 20.8336 115.225 20.3033C114.581 19.773 113.812 19.5078 112.918 19.5078C111.812 19.5078 110.953 19.8487 110.339 20.5305C109.725 21.2048 109.418 22.0722 109.418 23.1328V34.2578H106.032V22.6555C106.032 21.7086 105.737 20.9472 105.146 20.3714C104.555 19.7957 103.786 19.5078 102.839 19.5078C102.195 19.5078 101.6 19.6783 101.055 20.0192C100.517 20.3525 100.081 20.8184 99.748 21.4169C99.4222 22.0154 99.2593 22.7086 99.2593 23.4964V34.2578H95.8616ZM131.666 34.6101C129.946 34.6101 128.465 34.2427 127.222 33.5078C125.988 32.7654 125.033 31.7237 124.359 30.3828C123.692 29.0343 123.359 27.4548 123.359 25.6442C123.359 23.8563 123.692 22.2805 124.359 20.9169C125.033 19.5533 125.972 18.4889 127.177 17.7237C128.389 16.9586 129.806 16.576 131.427 16.576C132.412 16.576 133.366 16.7389 134.291 17.0646C135.215 17.3904 136.044 17.9018 136.779 18.5987C137.514 19.2957 138.094 20.201 138.518 21.3146C138.942 22.4207 139.154 23.7654 139.154 25.3487V26.5533H125.279V24.0078H135.825C135.825 23.1139 135.643 22.3222 135.279 21.6328C134.916 20.9358 134.404 20.3866 133.745 19.9851C133.094 19.5836 132.328 19.3828 131.45 19.3828C130.495 19.3828 129.662 19.6177 128.95 20.0874C128.245 20.5495 127.7 21.1555 127.313 21.9055C126.935 22.648 126.745 23.4548 126.745 24.326V26.3146C126.745 27.4813 126.95 28.4737 127.359 29.2919C127.775 30.1101 128.355 30.7351 129.097 31.1669C129.84 31.5911 130.707 31.8033 131.7 31.8033C132.344 31.8033 132.931 31.7124 133.461 31.5305C133.991 31.3411 134.45 31.0608 134.836 30.6896C135.222 30.3184 135.518 29.8601 135.722 29.3146L138.938 29.8942C138.681 30.8411 138.219 31.6707 137.552 32.3828C136.893 33.0874 136.063 33.6366 135.063 34.0305C134.071 34.4169 132.938 34.6101 131.666 34.6101ZM156.004 21.0646L152.924 21.6101C152.795 21.2161 152.591 20.8411 152.31 20.4851C152.038 20.129 151.667 19.8374 151.197 19.6101C150.727 19.3828 150.14 19.2692 149.435 19.2692C148.473 19.2692 147.67 19.4851 147.026 19.9169C146.382 20.3411 146.06 20.8904 146.06 21.5646C146.06 22.148 146.276 22.6177 146.708 22.9737C147.14 23.3298 147.837 23.6214 148.799 23.8487L151.572 24.4851C153.178 24.8563 154.375 25.4283 155.163 26.201C155.951 26.9737 156.345 27.9775 156.345 29.2124C156.345 30.2578 156.042 31.1896 155.435 32.0078C154.837 32.8184 154 33.4548 152.924 33.9169C151.856 34.379 150.617 34.6101 149.208 34.6101C147.254 34.6101 145.659 34.1934 144.424 33.3601C143.189 32.5192 142.432 31.326 142.151 29.7805L145.435 29.2805C145.64 30.1366 146.06 30.7843 146.697 31.2237C147.333 31.6555 148.163 31.8714 149.185 31.8714C150.299 31.8714 151.189 31.6404 151.856 31.1783C152.523 30.7086 152.856 30.1366 152.856 29.4624C152.856 28.9169 152.651 28.4586 152.242 28.0874C151.841 27.7161 151.223 27.4358 150.39 27.2464L147.435 26.5987C145.807 26.2275 144.602 25.6366 143.822 24.826C143.049 24.0154 142.663 22.9889 142.663 21.7464C142.663 20.7161 142.951 19.8146 143.526 19.0419C144.102 18.2692 144.898 17.6669 145.913 17.2351C146.928 16.7957 148.091 16.576 149.401 16.576C151.288 16.576 152.773 16.9851 153.856 17.8033C154.939 18.6139 155.655 19.701 156.004 21.0646ZM168.228 16.8033V19.5305H158.694V16.8033H168.228ZM161.251 12.6214H164.649V29.1328C164.649 29.7919 164.747 30.2881 164.944 30.6214C165.141 30.9472 165.395 31.1707 165.705 31.2919C166.024 31.4055 166.368 31.4624 166.739 31.4624C167.012 31.4624 167.251 31.4434 167.455 31.4055C167.66 31.3677 167.819 31.3374 167.933 31.3146L168.546 34.1214C168.349 34.1972 168.069 34.273 167.705 34.3487C167.342 34.4321 166.887 34.4775 166.342 34.4851C165.448 34.5002 164.614 34.3411 163.842 34.0078C163.069 33.6745 162.444 33.1593 161.967 32.4624C161.489 31.7654 161.251 30.8904 161.251 29.8374V12.6214ZM171.987 34.2578V16.8033H175.271V19.576H175.453C175.771 18.6366 176.331 17.898 177.134 17.3601C177.945 16.8146 178.862 16.5419 179.884 16.5419C180.096 16.5419 180.346 16.5495 180.634 16.5646C180.93 16.5798 181.161 16.5987 181.328 16.6214V19.8714C181.191 19.8336 180.949 19.7919 180.6 19.7464C180.252 19.6934 179.903 19.6669 179.555 19.6669C178.752 19.6669 178.036 19.8374 177.407 20.1783C176.786 20.5116 176.293 20.9775 175.93 21.576C175.566 22.1669 175.384 22.8411 175.384 23.5987V34.2578H171.987ZM189.191 34.6442C188.085 34.6442 187.085 34.4396 186.191 34.0305C185.297 33.6139 184.589 33.0116 184.066 32.2237C183.551 31.4358 183.293 30.4699 183.293 29.326C183.293 28.3411 183.483 27.5305 183.862 26.8942C184.24 26.2578 184.752 25.754 185.396 25.3828C186.04 25.0116 186.759 24.7313 187.555 24.5419C188.35 24.3525 189.161 24.2086 189.987 24.1101C191.032 23.9889 191.881 23.8904 192.532 23.8146C193.184 23.7313 193.657 23.5987 193.953 23.4169C194.248 23.2351 194.396 22.9396 194.396 22.5305V22.451C194.396 21.4586 194.115 20.6896 193.555 20.1442C193.002 19.5987 192.176 19.326 191.078 19.326C189.934 19.326 189.032 19.5798 188.373 20.0874C187.721 20.5874 187.271 21.1442 187.021 21.7578L183.828 21.0305C184.206 19.9699 184.759 19.1139 185.487 18.4624C186.221 17.8033 187.066 17.326 188.021 17.0305C188.975 16.7275 189.979 16.576 191.032 16.576C191.729 16.576 192.468 16.6593 193.248 16.826C194.036 16.9851 194.771 17.2805 195.453 17.7124C196.142 18.1442 196.706 18.7616 197.146 19.5646C197.585 20.3601 197.805 21.3942 197.805 22.6669V34.2578H194.487V31.8714H194.35C194.131 32.3108 193.801 32.7427 193.362 33.1669C192.922 33.5911 192.358 33.9434 191.668 34.2237C190.979 34.504 190.153 34.6442 189.191 34.6442ZM189.93 31.9169C190.869 31.9169 191.672 31.7313 192.339 31.3601C193.013 30.9889 193.524 30.504 193.873 29.9055C194.229 29.2995 194.407 28.6518 194.407 27.9624V25.7124C194.286 25.8336 194.051 25.9472 193.703 26.0533C193.362 26.1518 192.971 26.2389 192.532 26.3146C192.093 26.3828 191.665 26.4472 191.248 26.5078C190.831 26.5608 190.483 26.6063 190.203 26.6442C189.543 26.7275 188.941 26.8677 188.396 27.0646C187.858 27.2616 187.426 27.5457 187.1 27.9169C186.782 28.2805 186.623 28.7654 186.623 29.3714C186.623 30.2124 186.934 30.8487 187.555 31.2805C188.176 31.7048 188.968 31.9169 189.93 31.9169Z" fill="white"/>
</svg>
