<svg width="56" height="56" viewBox="0 0 56 56" fill="none" xmlns="http://www.w3.org/2000/svg">
<circle cx="28" cy="28" r="28" fill="#F29A2E"/>
<path fill-rule="evenodd" clip-rule="evenodd" d="M35.7286 30.6997C34.5466 29.9777 33.0236 30.1597 32.0436 31.1387L30.5216 32.6617C26.3516 31.6347 23.7846 29.0927 22.8506 25.0077C22.8506 25.0067 24.3816 23.4767 24.3816 23.4767C25.3606 22.4967 25.5426 20.9737 24.8206 19.7917C24.1426 18.6807 23.1656 17.0817 22.3766 15.7897C21.8976 15.0047 21.0846 14.4827 20.1716 14.3737C19.2586 14.2647 18.3456 14.5807 17.6946 15.2317L15.3546 17.5717C14.4036 18.5217 13.9936 19.8867 14.2646 21.2047V21.2087C16.5536 32.1417 23.2156 38.8277 34.2946 41.2287C34.2956 41.2297 34.2966 41.2297 34.2976 41.2297C35.6216 41.5127 36.9986 41.1057 37.9556 40.1487C38.6346 39.4797 39.5146 38.5997 40.2886 37.8257C40.9396 37.1747 41.2556 36.2617 41.1466 35.3487C41.0376 34.4357 40.5156 33.6227 39.7306 33.1437C38.4386 32.3547 36.8396 31.3787 35.7286 30.6997Z" fill="white"/>
</svg>
