<svg width="72" height="80" viewBox="0 0 72 80" fill="none" xmlns="http://www.w3.org/2000/svg">
<path d="M71.013 35.0128C71.013 15.5912 55.1999 -0.137068 35.7464 0.000900808C16.4702 0.137463 0.823444 16.0431 0.9886 35.3192C1.12454 51.1867 11.8164 64.5339 26.3839 68.6861C27.7016 69.0617 28.8277 69.9226 29.512 71.1095L33.9581 78.8203C34.8652 80.3932 37.1352 80.3932 38.0422 78.8203L42.4883 71.1093C43.1724 69.9229 44.2977 69.0618 45.6147 68.6865C60.2766 64.5082 71.013 51.0153 71.013 35.0128Z" fill="#D82E3D"/>
<path d="M35.7459 0.000898786C34.5744 0.00918004 33.4166 0.0768363 32.2745 0.198868C49.8588 2.06012 63.56 16.9351 63.56 35.0129C63.56 51.0154 52.8236 64.5082 38.1617 68.6865C36.8447 69.0618 35.7194 69.9229 35.0353 71.1093L32.2734 75.8993L33.9577 78.8203C34.8647 80.3932 37.1348 80.3932 38.0417 78.8203L42.4878 71.1093C43.1719 69.9229 44.2972 69.0618 45.6142 68.6865C60.2761 64.5082 71.0125 51.0154 71.0125 35.0129C71.0125 15.5912 55.1994 -0.136914 35.7459 0.000898786Z" fill="#B93333"/>
<path d="M37.012 54.5582H34.9876C33.6736 54.5582 32.6084 53.4929 32.6084 52.1788V50.5482C32.6084 49.2341 33.6737 48.1689 34.9876 48.1689H37.012C38.3261 48.1689 39.3912 49.2343 39.3912 50.5482V52.1788C39.3912 53.493 38.3261 54.5582 37.012 54.5582Z" fill="#F1F1F4"/>
<path d="M37.0121 48.1689H34.9877C34.9104 48.1689 34.8343 48.1733 34.7588 48.1805C35.9654 48.2957 36.9093 49.3114 36.9093 50.5483V52.1789C36.9093 53.4157 35.9654 54.4314 34.7588 54.5466C34.8341 54.5538 34.9104 54.5582 34.9877 54.5582H37.0121C38.3261 54.5582 39.3913 53.4929 39.3913 52.1788V50.5482C39.3913 49.2343 38.3261 48.1689 37.0121 48.1689Z" fill="#E2DFE2"/>
<path d="M36.0001 43.8022C34.279 43.8022 32.8837 42.4068 32.8837 40.6857V33.8557C32.8837 32.1346 34.279 30.7393 36.0001 30.7393C38.798 30.7393 41.0741 28.4631 41.0741 25.6654C41.0741 22.8675 38.7979 20.5914 36.0001 20.5914C33.2023 20.5914 30.9262 22.8676 30.9262 25.6654C30.9262 27.3865 29.5309 28.7818 27.8098 28.7818C26.0887 28.7818 24.6934 27.3865 24.6934 25.6654C24.6934 19.4307 29.7655 14.3584 36.0002 14.3584C42.2349 14.3584 47.3073 19.4307 47.3073 25.6654C47.3073 30.7401 43.9471 35.0446 39.3345 36.4707C39.2051 36.5107 39.1168 36.6304 39.1168 36.7657V40.6859C39.1166 42.4068 37.7213 43.8022 36.0001 43.8022Z" fill="#F1F1F4"/>
<path d="M36.0003 20.5915C36.4358 20.5915 36.8586 20.6468 37.2622 20.7504C36.3343 19.7412 35.0039 19.1074 33.528 19.1074C30.7302 19.1074 28.4541 21.3837 28.4541 24.1815C28.4541 25.9026 27.0588 27.2979 25.3377 27.2979C25.2755 27.2979 25.2147 27.2921 25.1533 27.2885C25.701 28.183 26.6844 28.7818 27.81 28.7818C29.5311 28.7818 30.9264 27.3865 30.9264 25.6654C30.9264 22.8677 33.2027 20.5915 36.0003 20.5915Z" fill="#E2DFE2"/>
<path d="M40.5156 15.3018C43.1433 17.3741 44.835 20.5827 44.835 24.1811C44.835 28.8744 41.9609 32.9089 37.8802 34.6169C37.1294 34.9311 36.6445 35.6697 36.6445 36.4836V39.2014C36.6445 40.9225 35.2492 42.3178 33.5281 42.3178C33.4659 42.3178 33.4052 42.3121 33.3438 42.3086C33.8861 43.1943 34.8555 43.7902 35.9673 43.8018C37.6997 43.8199 39.1169 42.3416 39.1169 40.6093V36.7655C39.1169 36.63 39.2052 36.5105 39.3345 36.4705C43.9472 35.0446 47.3073 30.7399 47.3073 25.6652C47.3073 21.0354 44.5089 17.0485 40.5156 15.3018Z" fill="#E2DFE2"/>
</svg>
