<svg width="48" height="38" viewBox="0 0 48 38" fill="none" xmlns="http://www.w3.org/2000/svg">
<path d="M4.53333 34.2005C1.86666 31.2672 0.266663 28.0672 0.266663 22.7339C0.266663 13.4005 6.93333 5.13385 16.2667 0.867188L18.6667 4.33385C9.86666 9.13385 7.99999 15.2672 7.46666 19.2672C8.79999 18.4672 10.6667 18.2005 12.5333 18.4672C17.3333 19.0005 21.0667 22.7339 21.0667 27.8005C21.0667 30.2005 20 32.6005 18.4 34.4672C16.5333 36.3338 14.4 37.1338 11.7333 37.1338C8.79999 37.1338 6.13333 35.8005 4.53333 34.2005ZM31.2 34.2005C28.5333 31.2672 26.9333 28.0672 26.9333 22.7339C26.9333 13.4005 33.6 5.13385 42.9333 0.867188L45.3333 4.33385C36.5333 9.13385 34.6667 15.2672 34.1333 19.2672C35.4667 18.4672 37.3333 18.2005 39.2 18.4672C44 19.0005 47.7333 22.7339 47.7333 27.8005C47.7333 30.2005 46.6666 32.6005 45.0667 34.4672C43.4667 36.3338 41.0667 37.1338 38.4 37.1338C35.4667 37.1338 32.8 35.8005 31.2 34.2005Z" fill="#F29A2E"/>
</svg>
